<?xml version="1.0" encoding="utf-8"?>
<!-- Generator: Adobe Illustrator 16.0.0, SVG Export Plug-In . SVG Version: 6.00 Build 0)  -->
<!DOCTYPE svg PUBLIC "-//W3C//DTD SVG 1.1//EN" "http://www.w3.org/Graphics/SVG/1.1/DTD/svg11.dtd">
<svg version="1.1" xmlns="http://www.w3.org/2000/svg" xmlns:xlink="http://www.w3.org/1999/xlink" x="0px" y="0px"
	 width="319.483px" height="113.994px" viewBox="0 0 319.483 113.994" enable-background="new 0 0 319.483 113.994"
	 xml:space="preserve">
<g id="art">
	<g>
		<path d="M69.097,64.672c0,3.213-1.118,5.777-3.358,7.69c-2.274,1.951-5.165,2.926-8.665,2.926H41.312V43.171
			c0-0.218-0.047-0.597-0.136-1.138c-0.091-0.542-0.291-1.085-0.597-1.626c-0.307-0.543-0.767-1.021-1.381-1.436
			c-0.614-0.416-1.446-0.623-2.492-0.623v-1.192h19.444c3.432,0,6.139,0.794,8.125,2.384c1.986,1.625,2.98,3.811,2.98,6.555
			c0,1.373-0.218,2.601-0.65,3.684c-0.435,1.047-0.94,1.895-1.519,2.546c-0.649,0.65-1.316,1.156-2.004,1.515
			c-0.36,0.218-0.685,0.399-0.976,0.544c-0.289,0.144-0.541,0.253-0.758,0.325c-0.252,0.07-0.46,0.126-0.623,0.163
			c-0.163,0.033-0.315,0.052-0.46,0.052c2.347,0,4.405,1.012,6.176,3.033C68.212,60.051,69.097,62.29,69.097,64.672 M41.312,43.171
			v0.161V43.171z M54.473,52.919c5.49,0,8.231-2.004,8.231-6.013c0-3.936-2.474-5.902-7.417-5.902h-9.479v11.915H54.473z
			 M64.168,64.401c0-2.346-0.758-4.206-2.274-5.578c-1.517-1.301-3.665-1.948-6.445-1.948h-9.641v14.676h9.207
			c2.853,0,5.109-0.614,6.771-1.843C63.374,68.447,64.168,66.677,64.168,64.401"/>
		<path d="M96.226,57.739l9.368,17.494h-4.874l-9.152-16.789h-9.047v16.789h-4.278V43.278v-0.109c0-0.216-0.044-0.586-0.136-1.109
			c-0.089-0.524-0.288-1.064-0.595-1.626s-0.767-1.047-1.382-1.461c-0.613-0.417-1.444-0.623-2.49-0.623v-1.193h20.637
			c3.284,0,6.028,0.958,8.232,2.87c2.13,1.95,3.194,4.408,3.194,7.368C105.703,53.749,102.544,57.198,96.226,57.739 M100.829,47.395
			c0-4.188-2.637-6.285-7.907-6.285H82.521v13.38h10.78C98.318,54.489,100.829,52.125,100.829,47.395"/>
		<path d="M120.862,37.156v38.079h-4.496V43.334v-0.165c0-0.214-0.045-0.588-0.137-1.111c-0.089-0.521-0.287-1.064-0.595-1.622
			c-0.307-0.562-0.759-1.05-1.354-1.464c-0.596-0.415-1.434-0.623-2.519-0.623v-1.192h4.604H120.862z"/>
		<path d="M158.439,64.726c0,3.25-1.282,5.903-3.845,7.961c-2.637,2.096-6.139,3.142-10.509,3.142c-4.045,0-7.311-0.92-9.802-2.763
			c-2.527-1.841-4.082-4.44-4.659-7.798h4.496c0.397,1.911,1.444,3.431,3.139,4.548c1.879,1.302,4.279,1.951,7.206,1.951
			c2.672,0,4.927-0.597,6.77-1.787c1.843-1.193,2.763-2.745,2.763-4.658c0-0.47-0.053-0.92-0.162-1.354
			c-0.073-0.397-0.218-0.794-0.436-1.19c-0.178-0.398-0.413-0.724-0.702-0.977c-0.182-0.181-0.344-0.334-0.487-0.462
			c-0.144-0.126-0.29-0.243-0.435-0.351l-0.541-0.324c-0.182-0.109-0.414-0.218-0.703-0.326c-0.506-0.217-0.938-0.38-1.302-0.486
			c-0.18-0.072-0.395-0.146-0.647-0.217c-0.253-0.073-0.561-0.164-0.923-0.272c-0.324-0.07-0.622-0.145-0.892-0.215
			c-0.271-0.074-0.497-0.127-0.679-0.163c-0.18-0.072-0.424-0.136-0.73-0.189c-0.308-0.055-0.659-0.118-1.057-0.19
			c-0.396-0.071-0.75-0.145-1.055-0.216c-0.308-0.073-0.552-0.146-0.732-0.215c-2.637-0.543-4.766-1.214-6.393-2.006
			c-1.696-0.758-2.941-1.626-3.735-2.602c-0.866-1.045-1.428-2.019-1.681-2.923c-0.323-0.975-0.486-2.113-0.486-3.413
			c0-2.923,1.264-5.344,3.792-7.258c2.527-1.878,5.958-2.817,10.29-2.817c3.646,0,6.645,0.759,8.99,2.274
			c2.275,1.48,3.774,3.665,4.496,6.555h-0.107h-4.333c-0.506-1.551-1.444-2.778-2.816-3.683c-1.589-1.011-3.595-1.518-6.013-1.518
			c-2.745,0-5.037,0.597-6.88,1.789c-1.84,1.266-2.761,2.779-2.761,4.549v0.786c0,0.234,0.019,0.459,0.054,0.677
			c0.036,0.361,0.182,0.759,0.434,1.192c0.107,0.18,0.208,0.342,0.299,0.487c0.089,0.144,0.171,0.271,0.241,0.379
			c0.252,0.324,0.58,0.578,0.976,0.758c0.434,0.289,0.812,0.506,1.14,0.651c0.142,0.07,0.341,0.144,0.594,0.216
			c0.254,0.072,0.56,0.163,0.92,0.271c0.361,0.108,0.688,0.207,0.977,0.299c0.287,0.091,0.54,0.17,0.758,0.243
			c0.253,0.072,0.56,0.145,0.922,0.218c0.359,0.07,0.794,0.179,1.3,0.323c0.217,0.071,0.343,0.109,0.379,0.109
			c0.179,0.072,0.397,0.126,0.649,0.163c0.253,0.036,0.523,0.089,0.812,0.163c0.506,0.144,0.939,0.262,1.301,0.351
			c0.361,0.09,0.667,0.172,0.92,0.244c0.289,0.071,0.604,0.143,0.949,0.216c0.343,0.074,0.729,0.18,1.162,0.326
			c0.469,0.145,0.868,0.279,1.191,0.406c0.327,0.126,0.615,0.223,0.867,0.297c0.253,0.107,0.523,0.234,0.812,0.378l0.975,0.488
			c0.688,0.324,1.246,0.667,1.68,1.03c0.216,0.18,0.434,0.369,0.65,0.568c0.216,0.197,0.449,0.424,0.705,0.676
			c0.215,0.254,0.415,0.497,0.595,0.732c0.181,0.233,0.326,0.496,0.433,0.784c0.254,0.615,0.452,1.246,0.596,1.896
			C158.348,63.246,158.439,64.003,158.439,64.726"/>
		<path d="M195.958,62.021c0,8.81-4.568,13.213-13.703,13.213c-4.225,0-7.545-1.081-9.967-3.249
			c-2.418-2.239-3.627-5.289-3.627-9.151V42.682v0.65c0-0.217-0.037-0.597-0.109-1.138c-0.072-0.542-0.271-1.092-0.596-1.653
			c-0.326-0.561-0.805-1.057-1.436-1.489c-0.631-0.432-1.492-0.649-2.572-0.649v-1.247h9.262v25.192
			c0,2.777,0.812,4.926,2.439,6.444c1.621,1.517,3.934,2.274,6.932,2.274c3.066,0,5.324-0.795,6.77-2.384
			c1.443-1.624,2.164-4.099,2.164-7.419V37.155h4.443V62.021z M168.661,43.549v-0.217V43.549z"/>
		<polygon points="218.921,40.623 218.921,75.235 214.479,75.235 214.479,40.623 203.591,40.623 203.591,37.156 229.808,37.156 
			229.808,40.623 		"/>
		<path d="M270.397,75.233h-4.439V57.792h-21.504v17.441h-4.496V43.331v-0.163c0-0.218-0.035-0.597-0.107-1.137
			c-0.072-0.542-0.262-1.083-0.57-1.627c-0.305-0.541-0.766-1.019-1.379-1.435c-0.613-0.414-1.445-0.623-2.492-0.623v-1.19h9.045
			v17.114h21.504V37.156h4.439V75.233z"/>
		<path d="M285.179,37.156v38.079h-4.494V43.334v-0.165c0-0.214-0.047-0.588-0.135-1.111c-0.09-0.521-0.291-1.064-0.596-1.622
			c-0.307-0.562-0.758-1.05-1.355-1.464c-0.594-0.415-1.436-0.623-2.52-0.623v-1.192h4.605H285.179z"/>
	</g>
</g>
<g id="mark">
</g>
</svg>
